<?xml version="1.0" standalone="no"?>
<!DOCTYPE svg PUBLIC "-//W3C//DTD SVG 20010904//EN"
 "http://www.w3.org/TR/2001/REC-SVG-20010904/DTD/svg10.dtd">
<svg version="1.0" xmlns="http://www.w3.org/2000/svg"
 width="300.000000pt" height="400.000000pt" viewBox="0 0 300.000000 400.000000"
 preserveAspectRatio="xMidYMid meet">
<metadata>
Created by potrace 1.10, written by Peter Selinger 2001-2011
</metadata>
<g transform="translate(0.000000,400.000000) scale(0.100000,-0.100000)"
fill="#ffffff" stroke="none">
<path d="M1440 2883 c-48 -17 -138 -86 -153 -118 -18 -38 -23 -181 -8 -220 5
-13 3 -28 -6 -42 -13 -19 -12 -27 6 -69 12 -25 21 -52 21 -58 0 -6 18 -47 40
-91 48 -96 50 -122 13 -135 -16 -6 -39 -16 -53 -24 -14 -7 -42 -19 -64 -26
-21 -7 -63 -25 -93 -41 -30 -16 -60 -29 -67 -29 -6 0 -24 -12 -41 -26 -16 -14
-35 -29 -40 -32 -20 -13 -94 -188 -109 -260 -9 -40 -21 -148 -26 -240 -5 -92
-12 -180 -14 -197 -19 -120 -37 -544 -29 -640 1 -11 2 -35 1 -54 0 -22 6 -39
17 -47 15 -11 19 -30 20 -111 3 -119 9 -151 46 -228 21 -45 40 -70 76 -95 26
-19 51 -39 55 -44 5 -8 8 -7 8 0 0 7 10 14 22 17 21 6 21 7 5 25 -16 17 -16
22 -3 53 13 28 22 26 17 -3 -2 -12 17 -9 24 3 4 5 0 18 -8 27 -8 9 -20 33 -26
52 -6 19 -18 44 -26 54 -14 19 -15 19 -36 -5 -14 -17 -19 -33 -16 -54 8 -46
11 -57 30 -94 9 -19 15 -36 13 -38 -16 -16 -93 68 -80 89 4 7 3 8 -5 4 -6 -4
-14 0 -18 10 -4 10 -2 19 5 22 7 2 12 11 12 20 -1 15 -2 15 -11 -1 -13 -22
-32 -12 -24 13 3 11 0 22 -8 27 -19 11 -29 43 -14 43 8 0 7 4 -3 10 -13 9 -12
12 4 25 16 12 16 15 4 15 -12 0 -15 12 -14 58 0 31 5 60 11 64 6 5 6 8 -2 8
-6 0 -21 13 -33 30 l-21 29 27 -14 c15 -8 32 -11 37 -8 6 3 -6 14 -25 24 -39
20 -58 49 -32 49 10 0 12 5 7 13 -14 22 -14 57 -1 57 9 1 7 5 -4 13 -12 10
-16 25 -13 63 2 42 5 48 21 45 11 -3 53 -5 95 -5 67 -1 75 -3 71 -19 -2 -9 -8
-19 -12 -22 -4 -2 -3 -29 2 -60 10 -66 1 -89 -45 -109 -21 -9 -26 -15 -14 -15
10 -1 27 4 38 9 17 10 18 8 13 -33 -5 -33 -2 -51 11 -71 10 -14 15 -35 12 -47
-4 -14 -1 -19 7 -16 13 5 17 -6 18 -60 1 -18 5 -30 10 -27 4 3 11 -13 14 -35
4 -22 14 -46 22 -53 13 -11 14 -11 8 0 -4 7 -10 33 -13 58 -5 50 -34 150 -55
186 -18 33 -19 87 -3 112 11 16 12 30 5 55 -10 36 -3 126 13 156 30 58 39 199
16 255 -18 44 -66 97 -66 73 0 -9 10 -26 22 -37 27 -25 55 -101 50 -136 -2
-14 -4 -31 -4 -39 -1 -11 -4 -11 -17 0 -13 11 -14 9 -9 -13 4 -16 2 -29 -5
-33 -9 -6 -9 -10 1 -16 11 -8 9 -13 -9 -29 -43 -36 -155 -38 -183 -4 -10 13
-10 17 0 24 8 4 9 10 3 14 -15 9 3 342 24 419 1 4 2 40 3 81 1 71 2 74 24 69
22 -4 22 -4 2 9 -12 7 -19 21 -17 31 2 9 8 15 13 12 5 -4 9 -2 9 4 0 5 -6 12
-12 14 -10 4 -10 8 1 15 8 6 9 11 3 13 -13 5 -1 132 23 239 10 47 82 177 102
184 9 4 13 9 9 13 -3 4 8 12 26 17 18 6 33 17 33 25 0 8 6 16 13 19 8 2 10 -3
6 -15 -3 -10 -2 -14 3 -8 4 6 19 16 33 23 25 11 25 11 -5 6 l-30 -5 34 15 c18
9 38 13 45 9 6 -3 8 -2 3 2 -4 5 10 16 30 25 37 17 39 17 62 -4 13 -11 21 -15
17 -8 -14 24 4 51 39 58 41 7 59 27 52 54 -5 19 -3 18 36 -5 51 -29 113 -40
150 -26 15 6 49 31 76 56 26 25 52 41 56 37 5 -4 5 -2 2 4 -4 6 2 27 12 48 27
53 48 251 26 251 -5 0 -9 -13 -8 -30 2 -24 1 -26 -6 -10 -15 37 -33 90 -34
103 -1 19 -151 17 -167 -3 -7 -8 -25 -15 -41 -15 -24 0 -29 -4 -30 -25 -1 -14
-3 -29 -4 -35 -1 -5 -3 -18 -4 -27 -2 -16 -3 -16 -9 -2 -6 14 -9 15 -20 3 -8
-9 -9 -14 -2 -14 6 0 9 -4 6 -9 -7 -10 -67 -8 -85 3 -6 4 -11 25 -11 46 0 37
1 39 30 37 16 -1 30 -7 30 -12 0 -6 9 -11 20 -12 11 -1 20 3 20 8 0 6 -4 7
-10 4 -5 -3 -10 3 -10 14 0 29 30 27 31 -1 1 -22 1 -22 8 2 12 40 -2 45 -74
25 -36 -9 -68 -16 -70 -13 -2 2 3 24 11 48 17 50 46 85 87 106 15 8 27 19 27
24 0 22 -23 8 -75 -45 -30 -30 -60 -55 -66 -55 -8 0 -8 4 0 14 9 11 9 20 2 34
-8 15 -5 24 14 42 14 13 23 25 20 28 -6 6 55 47 90 59 22 7 42 7 75 -3 24 -7
46 -11 49 -9 2 3 -1 5 -8 5 -7 0 -9 4 -6 10 3 5 0 7 -7 5 -8 -3 -14 2 -15 14
-2 18 1 19 35 7 21 -8 55 -23 76 -34 22 -12 43 -19 48 -16 5 3 15 0 23 -6 11
-9 12 -17 4 -33 -9 -16 -8 -22 6 -30 14 -7 15 -11 4 -17 -10 -7 -10 -12 0 -23
9 -12 9 -17 0 -23 -7 -4 -9 -3 -5 4 3 6 -3 13 -14 17 -16 5 -19 12 -14 33 4
15 7 31 8 36 0 5 -21 15 -49 22 -52 14 -126 9 -122 -8 1 -6 -4 -13 -12 -16 -9
-3 -11 0 -6 8 6 10 4 12 -9 7 -10 -4 -22 -7 -27 -7 -5 0 -9 -4 -9 -9 0 -4 26
-9 58 -10 31 0 70 -4 86 -7 19 -4 31 -2 37 7 7 12 10 12 21 0 11 -11 11 -13
-1 -6 -10 6 -11 2 -6 -15 16 -51 35 -87 51 -101 16 -13 16 -12 5 9 -10 18 -9
22 4 22 11 0 15 -11 15 -37 0 -28 3 -34 10 -23 7 12 10 8 10 -15 1 -25 3 -27
9 -10 9 24 2 105 -9 105 -5 0 -8 19 -8 43 2 107 -62 158 -198 156 -43 0 -86
-3 -94 -6z m65 -23 c3 -5 2 -10 -4 -10 -5 0 -13 5 -16 10 -3 6 -2 10 4 10 5 0
13 -4 16 -10z m-185 -220 c0 -5 -5 -10 -11 -10 -5 0 -7 5 -4 10 3 6 8 10 11
10 2 0 4 -4 4 -10z m300 -70 c-5 -17 -5 -30 0 -30 5 0 10 12 12 26 4 38 35 55
53 31 20 -28 -4 -81 -39 -85 -14 -2 -26 1 -26 7 0 6 -5 11 -11 11 -6 0 -9 -7
-5 -15 3 -8 0 -15 -5 -15 -6 0 -9 9 -6 20 3 11 1 20 -3 20 -5 0 -10 -7 -12
-15 -2 -10 -7 -12 -18 -5 -13 9 -12 12 5 26 15 11 17 17 7 23 -10 6 -10 10 3
21 8 7 19 9 23 5 4 -4 1 -10 -6 -12 -6 -3 -10 -9 -6 -14 11 -18 24 -9 24 17 0
14 4 23 9 19 6 -3 6 -17 1 -35z m-70 0 c0 -5 -4 -10 -10 -10 -5 0 -10 5 -10
10 0 6 5 10 10 10 6 0 10 -4 10 -10z m-227 -7 c3 -5 -1 -14 -9 -21 -12 -11
-14 -9 -14 8 0 20 14 27 23 13z m213 -31 c17 -35 62 -55 104 -47 45 9 60 22
60 51 0 13 4 24 9 24 5 0 11 -33 13 -74 2 -41 0 -72 -4 -70 -4 3 -11 -3 -16
-13 -13 -25 -26 -90 -16 -80 4 4 9 17 11 30 2 12 8 26 14 32 7 7 8 -2 3 -30
-8 -49 -11 -55 -30 -55 -9 0 -13 -5 -9 -12 4 -7 0 -5 -8 5 -11 14 -16 15 -20
5 -3 -7 -6 10 -6 38 -1 53 -10 65 -49 63 -12 0 -10 -3 6 -9 12 -5 22 -14 22
-19 0 -13 -44 -4 -48 9 -2 6 -8 8 -13 4 -5 -3 -9 4 -9 15 0 10 6 21 13 24 6 2
9 8 4 12 -4 5 -13 0 -21 -10 -8 -11 -19 -16 -30 -12 -19 7 -32 5 -29 -5 2 -4
-13 -14 -31 -23 -36 -17 -54 -44 -36 -55 5 -3 11 -18 12 -32 1 -15 6 -24 10
-22 5 3 6 10 3 15 -4 5 -3 18 0 29 5 16 15 19 58 19 29 -1 67 2 86 6 l34 8 -5
-41 c-6 -40 -6 -41 19 -31 24 9 25 8 21 -16 -3 -14 -1 -25 3 -25 5 0 9 5 9 12
0 6 3 8 7 4 5 -4 -1 -14 -11 -22 -11 -7 -32 -25 -48 -40 -16 -14 -36 -23 -43
-20 -8 3 -17 2 -19 -3 -6 -9 -26 -8 -73 3 -36 8 -60 31 -43 41 5 3 10 12 10
18 0 7 -5 4 -11 -5 -16 -28 -24 -22 -53 35 -15 28 -20 43 -12 32 16 -18 16
-18 10 15 -8 42 -7 41 -31 43 -11 0 -20 6 -20 12 -1 5 -6 41 -12 80 -6 45 -7
73 -1 79 7 7 10 1 10 -15 0 -14 5 -30 12 -37 15 -15 82 -16 109 -2 23 13 55
70 39 70 -6 0 -8 5 -5 11 11 16 38 6 51 -19z m-227 -74 c1 -10 -3 -18 -9 -18
-5 0 -10 17 -9 38 0 30 2 33 9 17 5 -11 9 -28 9 -37z m438 -10 c-3 -8 -6 -5
-6 6 -1 11 2 17 5 13 3 -3 4 -12 1 -19z m-234 -74 c-16 -12 -14 -12 20 -7 24
4 37 2 37 -6 0 -12 -24 -15 -78 -12 -18 2 -39 -3 -47 -9 -9 -7 -15 -8 -15 -2
0 5 16 17 35 26 19 9 37 21 40 26 4 6 11 8 16 4 6 -3 3 -12 -8 -20z m-458
-2211 c-5 -20 -9 -22 -20 -13 -8 6 -12 17 -9 25 3 7 1 16 -5 20 -14 8 -14 41
1 68 10 20 12 18 25 -27 8 -27 12 -60 8 -73z"/>
<path d="M1652 2588 c3 -7 13 -15 24 -17 16 -3 17 -1 5 13 -16 19 -34 21 -29
4z"/>
<path d="M1696 2477 c3 -10 9 -15 12 -12 3 3 0 11 -7 18 -10 9 -11 8 -5 -6z"/>
<path d="M1574 2464 c9 -8 14 -19 11 -24 -3 -4 2 -10 9 -13 12 -5 13 -1 4 24
-5 16 -17 29 -25 29 -12 0 -12 -2 1 -16z"/>
<path d="M1656 2452 c-2 -4 -1 -14 5 -22 7 -12 9 -10 9 8 0 23 -5 28 -14 14z"/>
<path d="M1493 2298 c2 -7 9 -12 15 -11 6 2 9 -4 6 -12 -4 -8 -1 -15 6 -15 6
0 8 -6 4 -12 -4 -7 6 0 22 15 24 23 27 29 14 37 -11 7 -17 5 -21 -7 -5 -15 -6
-15 -12 0 -3 9 -14 17 -23 17 -8 0 -14 -6 -11 -12z"/>
<path d="M1577 2248 c-2 -8 1 -22 8 -32 11 -14 17 -16 32 -7 17 11 17 11 -1 9
-12 -2 -20 4 -22 15 -3 25 -10 31 -17 15z"/>
<path d="M1620 2251 c0 -5 5 -13 10 -16 6 -3 10 -2 10 4 0 5 -4 13 -10 16 -5
3 -10 2 -10 -4z"/>
<path d="M1570 2830 c20 -13 33 -13 25 0 -3 6 -14 10 -23 10 -15 0 -15 -2 -2
-10z"/>
<path d="M1438 2813 c7 -3 16 -2 19 1 4 3 -2 6 -13 5 -11 0 -14 -3 -6 -6z"/>
<path d="M1350 2765 c-7 -8 -8 -15 -2 -15 5 0 15 7 22 15 7 8 8 15 2 15 -5 0
-15 -7 -22 -15z"/>
<path d="M1450 2720 c-6 -11 -8 -20 -6 -20 3 0 10 9 16 20 6 11 8 20 6 20 -3
0 -10 -9 -16 -20z"/>
<path d="M1316 2713 c-6 -14 -5 -15 5 -6 7 7 10 15 7 18 -3 3 -9 -2 -12 -12z"/>
<path d="M1350 2551 c0 -6 5 -13 10 -16 6 -3 10 1 10 9 0 9 -4 16 -10 16 -5 0
-10 -4 -10 -9z"/>
<path d="M1383 2524 c1 -12 -4 -19 -15 -18 -21 2 -24 -12 -5 -19 18 -7 42 32
29 45 -7 7 -10 4 -9 -8z"/>
<path d="M1697 2206 c-4 -15 -6 -31 -2 -34 10 -10 16 6 13 35 l-3 28 -8 -29z"/>
<path d="M1738 2164 c25 -17 28 -39 10 -64 -7 -9 -3 -5 10 8 29 30 28 50 -4
62 -36 14 -42 12 -16 -6z"/>
<path d="M1800 2130 c0 -9 -9 -29 -21 -44 -11 -14 -16 -26 -11 -26 6 0 20 15
32 34 19 32 23 34 52 25 17 -5 36 -13 41 -18 5 -5 16 -7 23 -4 10 4 12 0 8
-13 -4 -14 -3 -15 4 -6 7 11 21 8 72 -12 35 -14 65 -24 68 -21 3 2 -8 9 -24
16 -16 6 -51 19 -78 29 -27 11 -53 17 -57 15 -4 -3 -9 -1 -11 5 -1 5 -24 16
-50 24 -45 13 -48 13 -48 -4z"/>
<path d="M1350 2084 c0 -9 84 -44 105 -43 14 0 16 2 5 6 -8 3 -28 11 -45 18
-44 19 -65 25 -65 19z"/>
<path d="M1668 2063 c7 -3 16 -2 19 1 4 3 -2 6 -13 5 -11 0 -14 -3 -6 -6z"/>
<path d="M1543 2043 c9 -2 25 -2 35 0 9 3 1 5 -18 5 -19 0 -27 -2 -17 -5z"/>
<path d="M1636 2041 c-3 -5 1 -11 9 -14 9 -4 12 -1 8 9 -6 16 -10 17 -17 5z"/>
<path d="M1440 2010 c8 -5 22 -10 30 -10 13 0 13 1 0 10 -8 5 -22 10 -30 10
-13 0 -13 -1 0 -10z"/>
<path d="M1498 2003 c6 -2 18 -2 25 0 6 3 1 5 -13 5 -14 0 -19 -2 -12 -5z"/>
<path d="M2089 2001 c11 -7 10 -11 -5 -21 -16 -9 -16 -11 -2 -6 25 7 84 -58
103 -113 20 -58 19 -140 -1 -191 -9 -23 -14 -44 -10 -47 3 -4 6 2 6 12 0 10 3
15 7 12 3 -4 11 -2 18 3 8 6 12 6 13 -3 1 -6 5 -41 9 -77 5 -37 6 -80 2 -98
-4 -21 -3 -29 4 -25 7 4 8 0 3 -13 -10 -25 -10 -53 0 -84 8 -23 9 -22 15 15 8
44 4 247 -5 310 -14 95 -30 154 -57 210 -16 33 -29 63 -29 67 -1 17 -49 58
-66 58 -15 0 -16 -2 -5 -9z"/>
<path d="M2070 1950 c-7 -14 -5 -59 3 -51 5 5 7 19 4 32 -2 13 -5 22 -7 19z"/>
<path d="M1526 1917 c3 -10 9 -15 12 -12 3 3 0 11 -7 18 -10 9 -11 8 -5 -6z"/>
<path d="M2004 1905 c3 -8 1 -15 -4 -15 -6 0 -10 -9 -10 -20 0 -11 4 -20 9
-20 5 0 12 -19 16 -42 5 -24 9 -46 10 -50 1 -5 3 -18 4 -31 0 -13 8 -32 17
-43 14 -17 15 -12 9 64 -4 63 -10 89 -25 105 -23 24 -18 37 5 13 21 -21 24
-20 18 5 -3 11 -12 23 -19 26 -8 3 -11 9 -8 14 3 5 -2 9 -11 9 -11 0 -15 -5
-11 -15z"/>
<path d="M2101 1895 c-8 -19 -16 -88 -20 -185 -5 -108 -12 -166 -23 -192 -9
-21 -17 -54 -17 -75 0 -21 -6 -63 -14 -93 -16 -61 -15 -148 1 -200 5 -19 13
-55 17 -80 3 -25 8 -56 11 -70 4 -22 3 -22 -10 5 -9 17 -15 47 -16 67 0 21 -9
61 -20 89 -12 33 -17 63 -13 82 4 21 3 28 -5 23 -7 -4 -12 -16 -12 -27 0 -11
-4 -17 -10 -14 -10 6 13 73 28 85 4 3 9 31 10 64 2 32 7 69 13 83 5 13 9 34 9
47 0 12 9 39 20 61 11 21 14 33 8 27 -21 -21 -30 -13 -25 21 6 41 -15 82 -53
102 -17 9 -30 12 -30 9 0 -4 -9 3 -20 16 l-20 23 0 -36 c0 -38 14 -57 24 -31
5 12 13 9 42 -19 35 -33 37 -37 38 -108 1 -89 -19 -248 -34 -263 -7 -7 -10 -4
-10 8 0 10 -5 14 -11 11 -6 -4 -10 -21 -9 -39 3 -48 0 -53 -15 -26 -8 14 -14
21 -15 17 0 -15 31 -82 61 -129 41 -63 60 -156 43 -198 -14 -33 -5 -75 18 -82
10 -4 9 -12 -4 -42 -10 -20 -18 -42 -18 -49 0 -17 -44 -63 -88 -92 -54 -35
-176 -68 -270 -73 -46 -2 -80 -7 -77 -13 8 -12 162 -1 189 13 11 6 31 12 43
14 33 3 174 75 180 91 12 31 22 9 18 -42 -2 -34 0 -53 6 -50 5 4 9 -1 9 -9 0
-16 -72 -57 -144 -82 -54 -19 -206 -43 -284 -45 -34 -1 -62 -6 -62 -10 0 -9
21 -13 53 -11 9 1 17 -4 17 -11 0 -9 2 -9 8 0 4 6 34 14 67 17 33 3 71 8 85
11 14 2 39 7 55 11 43 8 115 35 152 57 31 18 32 18 42 -2 17 -31 13 -43 -20
-70 -23 -20 -30 -33 -27 -51 4 -23 5 -24 12 -5 14 38 23 50 37 50 8 0 14 -9
15 -20 4 -85 5 -90 13 -70 5 11 7 43 5 70 -2 28 -6 106 -8 175 -3 69 -7 132
-11 141 -3 9 1 21 10 29 18 15 19 56 2 90 -14 29 -8 74 11 78 7 1 23 -3 35 -9
l22 -10 -21 18 c-36 30 -39 59 -10 94 14 17 26 36 25 42 0 7 -5 2 -11 -11 -15
-29 -41 -24 -44 8 -1 14 -8 60 -14 103 -9 60 -9 92 0 145 7 37 14 82 16 100 5
55 36 152 46 146 5 -3 7 -13 4 -21 -3 -8 -1 -11 4 -8 13 8 13 45 0 45 -5 0
-10 5 -10 11 0 5 5 7 10 4 6 -3 10 2 11 12 0 10 1 35 2 56 1 20 -1 37 -5 37
-5 0 -9 -19 -9 -42 -1 -40 -2 -41 -8 -13 -4 17 -6 37 -5 45 1 8 3 24 4 35 1
20 1 20 9 0 11 -29 21 68 13 125 l-7 44 -14 -29z"/>
<path d="M2151 1865 c-2 -39 12 -125 20 -125 8 0 3 45 -11 110 -4 19 -8 26 -9
15z"/>
<path d="M1906 1847 c3 -10 9 -15 12 -12 3 3 0 11 -7 18 -10 9 -11 8 -5 -6z"/>
<path d="M1015 1810 c8 -32 34 -158 38 -187 2 -12 7 -26 11 -30 5 -5 6 6 2 22
-3 17 -10 57 -15 90 -5 33 -17 76 -26 95 -10 22 -14 26 -10 10z"/>
<path d="M2186 1615 c-9 -26 -7 -32 5 -12 6 10 9 21 6 23 -2 3 -7 -2 -11 -11z"/>
<path d="M1100 1579 c0 -13 -4 -18 -12 -13 -8 5 -9 2 -5 -10 4 -10 7 -25 7
-33 0 -9 3 -14 6 -11 8 8 16 88 9 88 -3 0 -5 -9 -5 -21z"/>
<path d="M1086 1435 c7 -126 7 -172 -1 -185 -4 -7 -2 -16 5 -20 9 -6 9 -9 0
-15 -7 -4 -9 -17 -4 -34 4 -14 9 -64 11 -111 5 -110 5 -116 4 -175 -1 -27 -1
-61 -1 -75 -1 -47 -7 -107 -13 -117 -17 -28 -26 -103 -16 -130 10 -26 22 -109
35 -253 2 -30 9 -64 14 -75 12 -28 19 -75 10 -75 -8 0 0 -49 21 -122 8 -29 19
-48 27 -48 11 0 13 8 7 33 -4 17 -8 40 -8 50 -1 9 -6 17 -11 17 -5 0 -7 3 -3
6 3 3 2 17 -3 30 -6 14 -6 24 -1 24 5 0 3 13 -5 29 -8 17 -13 46 -10 72 2 24
-1 52 -6 63 -6 10 -6 16 -1 13 15 -9 13 31 -3 44 -8 6 -14 16 -14 21 0 6 7 4
17 -3 15 -13 15 -12 5 8 -7 12 -17 25 -22 28 -21 13 -9 25 13 14 22 -12 22
-12 3 10 -11 11 -16 24 -13 27 3 4 0 19 -9 35 -13 26 -13 28 3 22 14 -5 13 -1
-4 16 -19 18 -21 28 -17 64 8 54 12 57 35 29 25 -31 152 -112 199 -127 3 -1
23 -10 45 -20 22 -9 57 -18 77 -19 44 -3 68 -20 61 -45 -3 -10 -1 -21 4 -24 5
-3 9 11 10 32 l2 38 -77 18 c-166 39 -408 201 -324 217 9 2 39 -11 67 -29 27
-18 56 -33 65 -33 8 1 -1 9 -20 20 -19 10 -53 34 -74 52 -33 29 -39 41 -40 74
l-1 40 34 -23 c52 -36 55 -17 5 44 -37 46 -44 60 -39 83 4 19 1 37 -10 54 -19
28 -12 91 11 100 8 3 14 13 14 23 0 10 16 43 35 73 32 49 33 55 18 61 -14 5
-21 -2 -32 -33 -8 -26 -16 -36 -21 -28 -12 19 -22 -6 -16 -38 3 -15 2 -34 -4
-42 -7 -11 -10 -7 -11 20 -3 52 0 75 11 78 6 2 10 19 10 37 0 18 11 63 25 100
14 37 24 75 22 84 -2 9 -7 -1 -11 -21 -5 -24 -12 -35 -21 -32 -9 4 -12 -1 -8
-14 2 -11 -2 -39 -11 -63 l-15 -44 -1 85 c-1 47 -7 101 -14 120 -13 33 -13 32
-10 -35z"/>
<path d="M1877 1453 c-2 -5 1 -26 8 -48 l13 -40 -1 48 c0 42 -9 59 -20 40z"/>
<path d="M2282 1430 c0 -14 2 -19 5 -12 2 6 2 18 0 25 -3 6 -5 1 -5 -13z"/>
<path d="M1821 1424 c0 -5 7 -25 14 -44 12 -31 14 -32 14 -10 0 14 -6 34 -14
44 -8 11 -15 16 -14 10z"/>
<path d="M901 1379 c0 -19 5 -43 10 -54 6 -15 8 -7 5 28 -4 55 -16 77 -15 26z"/>
<path d="M2296 1333 c7 -98 9 -118 18 -131 4 -7 5 -21 1 -31 -3 -11 -1 -22 5
-26 5 -3 10 -17 10 -31 0 -14 4 -22 10 -19 10 6 8 38 -4 85 -8 29 -17 102 -19
147 -1 17 -6 29 -11 26 -5 -4 -6 6 -2 21 3 14 2 26 -3 26 -6 0 -8 -29 -5 -67z"/>
<path d="M1242 1319 c-21 -37 -50 -56 -39 -24 4 8 2 17 -2 19 -5 3 -8 -4 -7
-16 2 -36 24 -31 52 12 15 22 25 42 23 45 -2 2 -15 -14 -27 -36z"/>
<path d="M1906 1344 c-3 -9 -2 -23 4 -32 7 -14 9 -10 10 16 0 35 -5 41 -14 16z"/>
<path d="M936 1261 c-9 -14 18 -71 34 -70 10 0 11 2 2 6 -6 2 -10 8 -7 13 3 5
-2 15 -11 24 -8 9 -12 20 -9 26 3 5 4 10 1 10 -3 0 -7 -4 -10 -9z"/>
<path d="M2177 1253 c-4 -3 -7 -11 -7 -17 0 -6 5 -5 12 2 6 6 9 14 7 17 -3 3
-9 2 -12 -2z"/>
<path d="M970 1160 c0 -5 5 -10 11 -10 5 0 7 5 4 10 -3 6 -8 10 -11 10 -2 0
-4 -4 -4 -10z"/>
<path d="M2117 1129 c7 -7 15 -10 18 -7 3 3 -2 9 -12 12 -14 6 -15 5 -6 -5z"/>
<path d="M2344 1078 c-7 -11 -7 -38 0 -138 2 -20 -4 -43 -13 -54 -9 -11 -10
-16 -3 -12 7 5 12 1 12 -10 0 -19 -50 -65 -62 -58 -4 3 -8 1 -8 -5 0 -19 -78
-33 -116 -21 -41 14 -46 22 -48 74 -1 36 -31 96 -49 96 -8 0 4 -43 16 -58 13
-17 17 -71 6 -78 -14 -8 -11 -48 7 -83 9 -18 13 -42 10 -56 -5 -21 -2 -25 32
-34 21 -6 54 -13 73 -16 30 -5 29 -3 -12 12 -53 20 -81 41 -73 54 3 5 27 -2
54 -16 27 -14 60 -25 72 -24 15 0 18 3 8 6 -8 3 -33 13 -55 23 -22 10 -47 21
-56 23 -15 5 -49 59 -49 77 0 4 19 1 43 -7 48 -17 118 -11 153 12 30 20 46 19
42 -2 -2 -9 -19 -22 -38 -30 -19 -7 -25 -11 -13 -9 13 2 24 -2 27 -11 14 -37
48 28 49 92 0 17 5 33 11 37 7 5 7 8 1 8 -6 0 -10 43 -9 110 0 61 -1 110 -2
110 -2 0 -6 -5 -10 -12z"/>
<path d="M2138 943 c6 -2 18 -2 25 0 6 3 1 5 -13 5 -14 0 -19 -2 -12 -5z"/>
<path d="M2305 920 c-3 -5 -1 -10 4 -10 6 0 11 5 11 10 0 6 -2 10 -4 10 -3 0
-8 -4 -11 -10z"/>
<path d="M1850 896 c0 -2 7 -7 16 -10 8 -3 12 -2 9 4 -6 10 -25 14 -25 6z"/>
<path d="M2015 851 c-3 -5 -18 -12 -34 -16 -16 -3 -35 -13 -41 -20 -10 -12 -7
-13 20 -5 18 5 39 15 48 22 11 8 10 5 -2 -10 -15 -17 -16 -21 -4 -17 17 7 42
55 28 55 -5 0 -11 -4 -15 -9z"/>
<path d="M1245 810 c-3 -5 -1 -10 4 -10 6 0 11 5 11 10 0 6 -2 10 -4 10 -3 0
-8 -4 -11 -10z"/>
<path d="M1946 784 c-30 -29 -19 -33 14 -4 13 11 18 20 12 20 -6 0 -18 -7 -26
-16z"/>
<path d="M1205 780 c-3 -5 -1 -10 4 -10 6 0 11 5 11 10 0 6 -2 10 -4 10 -3 0
-8 -4 -11 -10z"/>
<path d="M2220 715 c0 -2 14 -11 30 -20 17 -9 30 -11 30 -6 0 6 -9 15 -19 21
-21 11 -41 13 -41 5z"/>
<path d="M2292 678 c-14 -39 -13 -41 16 -19 15 11 21 23 16 34 -9 25 -18 21
-32 -15z"/>
<path d="M970 666 c0 -2 7 -6 15 -10 8 -3 15 -1 15 4 0 6 -7 10 -15 10 -8 0
-15 -2 -15 -4z"/>
<path d="M1190 666 c0 -10 84 -57 96 -54 8 2 -10 15 -40 30 -31 15 -56 25 -56
24z"/>
<path d="M1286 652 c17 -15 64 -32 64 -23 0 5 -14 14 -31 20 -38 13 -46 14
-33 3z"/>
<path d="M2315 640 c-13 -15 -26 -19 -42 -15 -23 5 -24 5 -7 -20 13 -20 15
-38 10 -82 -6 -49 -5 -54 9 -43 12 10 15 10 15 -3 0 -35 -68 -47 -143 -26 -24
6 -35 14 -30 22 7 11 12 45 13 82 1 10 5 24 11 31 7 8 2 18 -17 33 -29 23 -45
21 -24 -4 11 -14 11 -25 -3 -120 -2 -11 -11 -31 -19 -45 -9 -14 -22 -54 -29
-90 -17 -93 -19 -99 -30 -75 -7 16 -8 14 -4 -8 7 -33 -2 -70 -15 -62 -5 3 -18
-35 -29 -84 -23 -97 -26 -131 -12 -131 14 0 41 89 43 143 2 49 6 55 25 36 16
-16 49 24 59 69 4 21 7 40 6 45 -4 18 16 5 26 -17 14 -32 4 -96 -15 -96 -8 0
-13 -8 -11 -18 3 -17 -28 -55 -53 -65 -8 -3 9 -6 37 -6 41 -1 56 4 78 24 15
14 31 25 35 25 10 0 59 62 80 100 22 41 31 92 25 138 -6 41 -7 42 -18 20 -7
-14 -9 -38 -5 -61 7 -38 -7 -87 -25 -87 -13 0 -35 -33 -36 -53 0 -10 -4 -15
-10 -12 -5 3 -10 -1 -10 -9 0 -9 -4 -16 -8 -16 -5 0 -22 -11 -38 -25 -34 -29
-48 -32 -35 -8 11 22 25 58 38 99 8 25 7 36 -8 55 -10 13 -19 30 -19 37 0 31
-33 4 -45 -38 -13 -45 -37 -90 -45 -85 -5 3 2 40 15 82 13 42 24 79 23 82 -2
25 6 45 26 66 24 23 26 24 60 10 39 -17 103 -20 125 -6 14 9 16 30 11 120 -3
46 0 56 20 71 12 9 21 23 19 29 -3 8 -11 5 -24 -9z"/>
<path d="M1367 629 c7 -7 15 -10 18 -7 3 3 -2 9 -12 12 -14 6 -15 5 -6 -5z"/>
<path d="M1408 623 c7 -3 16 -2 19 1 4 3 -2 6 -13 5 -11 0 -14 -3 -6 -6z"/>
<path d="M891 595 c14 -14 19 -14 50 -1 l34 15 -50 1 c-44 0 -48 -2 -34 -15z"/>
<path d="M1520 606 c0 -10 28 -13 41 -5 10 6 7 9 -13 9 -16 0 -28 -2 -28 -4z"/>
<path d="M1997 405 c-15 -14 -27 -32 -27 -40 0 -8 0 -17 0 -20 0 -3 -6 -21
-14 -40 -9 -20 -11 -35 -5 -35 11 0 39 61 39 86 0 9 9 29 21 45 25 36 22 37
-14 4z"/>
<path d="M1521 384 c0 -11 3 -14 6 -6 3 7 2 16 -1 19 -3 4 -6 -2 -5 -13z"/>
<path d="M1522 330 c0 -19 2 -27 5 -17 2 9 2 25 0 35 -3 9 -5 1 -5 -18z"/>
<path d="M2032 330 c0 -14 2 -19 5 -12 2 6 2 18 0 25 -3 6 -5 1 -5 -13z"/>
<path d="M2246 327 c3 -10 9 -15 12 -12 3 3 0 11 -7 18 -10 9 -11 8 -5 -6z"/>
<path d="M935 299 c-11 -17 1 -21 15 -4 8 9 8 15 2 15 -6 0 -14 -5 -17 -11z"/>
<path d="M1290 286 c0 -2 7 -7 16 -10 8 -3 12 -2 9 4 -6 10 -25 14 -25 6z"/>
<path d="M1536 258 c2 -4 0 -9 -6 -13 -5 -3 -10 -20 -10 -37 0 -26 -2 -29 -15
-18 -14 11 -14 10 -6 -13 8 -21 7 -30 -6 -43 -21 -20 -30 -138 -10 -131 6 2
15 21 20 43 4 21 14 62 22 89 8 28 18 65 22 83 l8 33 35 -23 c28 -19 37 -33
43 -68 26 -145 30 -160 44 -160 8 0 12 4 9 8 -3 5 -7 30 -10 58 -3 27 -8 59
-12 72 -5 18 -3 21 12 17 12 -4 11 -1 -3 6 -14 7 -23 21 -23 36 0 15 -10 30
-30 42 -16 10 -28 20 -25 23 3 2 -10 4 -29 4 -19 -1 -32 -4 -30 -8z"/>
<path d="M2011 244 c0 -11 3 -14 6 -6 3 7 2 16 -1 19 -3 4 -6 -2 -5 -13z"/>
<path d="M1440 246 c0 -2 7 -9 15 -16 9 -7 15 -8 15 -2 0 5 -7 12 -15 16 -8 3
-15 4 -15 2z"/>
<path d="M1485 220 c-3 -6 1 -7 9 -4 18 7 21 14 7 14 -6 0 -13 -4 -16 -10z"/>
<path d="M1111 204 c0 -11 3 -14 6 -6 3 7 2 16 -1 19 -3 4 -6 -2 -5 -13z"/>
<path d="M1909 193 c-5 -14 -8 -30 -6 -36 1 -5 8 7 14 27 13 42 7 49 -8 9z"/>
<path d="M1909 125 c-3 -3 -2 -26 2 -53 4 -26 8 -53 8 -59 1 -7 6 -13 11 -13
14 0 12 81 -3 108 -7 12 -15 20 -18 17z"/>
<path d="M1710 106 c0 -2 7 -7 16 -10 8 -3 12 -2 9 4 -6 10 -25 14 -25 6z"/>
</g>
</svg>
