<?xml version="1.0" standalone="no"?>
<!DOCTYPE svg PUBLIC "-//W3C//DTD SVG 20010904//EN"
 "http://www.w3.org/TR/2001/REC-SVG-20010904/DTD/svg10.dtd">
<svg version="1.0" xmlns="http://www.w3.org/2000/svg"
 width="300.000000pt" height="400.000000pt" viewBox="0 0 300.000000 400.000000"
 preserveAspectRatio="xMidYMid meet">
<metadata>
Created by potrace 1.10, written by Peter Selinger 2001-2011
</metadata>
<g transform="translate(0.000000,400.000000) scale(0.050000,-0.050000)"
fill="#ffffff" stroke="none">
<path d="M2861 5759 c-112 -47 -257 -161 -288 -226 -35 -73 -44 -367 -15 -443
11 -26 5 -57 -14 -87 -28 -42 -28 -53 1 -110 18 -35 38 -85 45 -113 7 -27 53
-132 102 -233 88 -181 96 -247 31 -247 -18 0 -60 -15 -93 -32 -33 -18 -91 -44
-130 -57 -107 -39 -445 -210 -490 -247 -144 -122 -263 -542 -289 -1029 -11
-190 -23 -363 -28 -385 -67 -307 -85 -1437 -23 -1482 36 -27 40 -54 41 -254 3
-365 152 -642 370 -684 61 -12 86 29 45 75 -18 19 -27 41 -19 48 7 8 -5 26
-27 42 -23 15 -36 35 -30 44 5 9 -3 42 -19 72 -20 38 -23 67 -10 91 34 64 53
58 78 -26 35 -117 80 -179 119 -167 27 9 40 -19 71 -149 l38 -160 99 0 99 0
-35 52 c-19 29 -23 46 -10 38 18 -11 19 -5 5 23 -40 78 -47 147 -15 147 48 0
35 35 -24 64 -59 28 -90 106 -63 160 21 42 0 192 -29 210 -13 8 -7 18 15 26
33 11 34 15 3 45 -22 23 -29 50 -20 84 7 31 4 51 -9 51 -29 0 12 100 55 136
28 22 26 27 -13 37 -49 13 -63 46 -16 39 27 -4 130 -75 183 -127 14 -14 35
-25 47 -25 11 0 21 -9 21 -21 0 -14 12 -14 38 0 28 15 41 13 48 -7 6 -14 29
-31 52 -37 23 -6 37 -3 31 7 -6 10 7 18 29 18 22 0 45 -9 52 -20 7 -11 28 -20
48 -20 90 0 173 -336 91 -368 -17 -6 -26 -21 -19 -32 16 -26 -22 -26 -72 1
-22 12 -69 18 -104 14 -56 -6 -59 -9 -24 -25 58 -26 94 -67 84 -95 -5 -14 5
-41 22 -60 27 -31 27 -35 0 -35 -45 0 -85 -53 -52 -68 20 -9 20 -15 2 -23 -16
-8 -18 -26 -6 -58 12 -32 8 -59 -13 -89 -29 -41 -27 -42 69 -42 l98 0 22 115
c11 63 31 151 42 195 12 44 26 105 32 135 l11 54 69 -33 c70 -34 110 -112 110
-219 0 -24 11 -90 23 -145 l24 -102 101 1 c86 0 111 9 159 58 89 91 181 117
164 46 -8 -30 -16 -63 -18 -75 -1 -11 31 -23 72 -26 l75 -6 0 117 c0 67 -12
133 -27 155 -24 32 -21 49 19 128 69 138 108 242 108 289 0 55 75 179 99 164
30 -19 32 63 10 399 -17 258 -16 328 5 359 28 43 35 112 11 109 -44 -7 -85 5
-85 24 0 12 15 17 32 10 26 -10 30 -3 20 36 -6 27 -4 70 5 95 l17 46 16 -49
c8 -28 25 -63 37 -78 30 -37 34 -119 9 -186 -15 -40 -12 -76 11 -140 73 -202
81 -476 16 -581 -22 -36 -50 -123 -64 -195 -23 -123 -58 -203 -60 -139 -4 110
-139 -393 -139 -518 0 -147 97 80 103 242 3 87 7 93 48 83 55 -14 105 50 122
157 14 84 35 95 67 35 27 -50 5 -179 -33 -194 -15 -6 -27 -28 -27 -49 0 -21
-23 -60 -50 -86 l-51 -46 51 -13 c57 -15 187 37 204 81 6 15 22 27 36 27 28 0
120 114 177 218 34 63 43 148 37 322 -1 39 -1 93 0 120 1 28 -1 98 -4 157 -6
92 0 113 38 142 42 31 44 41 24 114 -18 67 -16 93 12 149 37 73 50 600 18 768
-8 44 -22 130 -32 190 -9 61 -26 146 -38 190 -11 44 -16 98 -10 120 9 37 8 38
-18 5 -18 -22 -26 -67 -21 -120 4 -47 9 -157 11 -245 1 -88 10 -165 19 -171
23 -15 -61 -103 -84 -88 -11 6 -19 1 -19 -11 0 -13 16 -18 38 -11 52 17 74
-46 30 -88 -19 -17 -28 -20 -21 -8 9 15 -10 29 -49 38 -35 7 -54 19 -42 26 38
24 39 211 0 219 -19 3 -43 -13 -57 -37 -19 -36 -18 -41 4 -28 22 14 23 11 1
-16 -55 -67 -43 -239 15 -228 132 26 246 -123 129 -168 -56 -21 -66 -67 -12
-50 32 10 36 1 31 -64 -3 -41 -15 -78 -27 -82 -11 -3 -20 -18 -20 -33 0 -46
-111 -65 -215 -37 -86 23 -60 107 34 107 43 0 85 10 92 22 8 13 -4 20 -34 18
-114 -10 -150 -1 -112 28 42 31 45 52 8 52 -14 0 -47 23 -73 50 -44 46 -44 50
-8 51 37 0 37 1 -2 30 -22 17 -41 37 -42 45 -1 8 -8 29 -16 46 -15 34 23 100
145 252 67 83 146 104 220 58 45 -28 40 27 -7 61 -49 36 -49 39 -21 132 24 79
59 328 57 405 -9 282 -85 664 -168 845 -32 69 -58 133 -58 143 0 34 -187 184
-215 173 -15 -6 -22 -3 -16 7 13 21 -377 175 -483 191 -16 2 -35 13 -43 24
-13 21 -103 51 -103 34 0 -4 14 -29 30 -55 41 -61 -14 -137 -100 -140 -31 -1
-61 -15 -66 -30 -6 -17 0 -22 14 -14 12 8 27 2 33 -14 15 -38 163 9 213 67 33
39 33 39 40 -6 4 -25 18 -43 31 -40 13 3 30 -17 36 -43 9 -35 22 -45 51 -37
21 5 38 0 38 -13 0 -12 -10 -22 -21 -22 -12 0 -16 -17 -10 -37 7 -22 -1 -48
-19 -63 -16 -14 -30 -17 -31 -7 0 9 -9 2 -20 -16 -20 -36 -97 -29 -124 11 -9
14 -15 9 -15 -12 0 -18 -19 -47 -42 -63 -25 -17 -36 -40 -28 -54 9 -14 20 -16
28 -4 21 32 205 82 355 96 l142 14 -9 -51 c-6 -28 4 -95 20 -148 17 -53 36
-128 43 -168 31 -186 70 -156 67 52 -2 177 3 211 47 295 l49 95 64 -72 c35
-39 64 -87 65 -105 0 -18 13 -50 30 -72 38 -50 38 -216 -1 -343 -20 -67 -30
-194 -31 -398 -1 -327 -5 -411 -22 -441 -7 -10 -22 -52 -35 -92 -13 -41 -37
-85 -53 -98 -16 -13 -29 -44 -29 -69 0 -40 -58 -91 -61 -54 -11 126 -34 251
-57 309 -27 72 22 320 97 485 47 104 65 210 72 426 8 277 -7 436 -38 405 -32
-32 -37 -69 -51 -391 -10 -211 -24 -321 -46 -370 -42 -89 -46 -43 -6 54 17 40
23 78 14 85 -9 6 -37 53 -61 104 -25 51 -76 114 -114 140 -37 26 -82 81 -99
122 -16 41 -35 75 -42 75 -7 0 -7 -14 -1 -30 9 -24 1 -28 -38 -18 -40 10 -47
6 -37 -19 6 -18 22 -30 34 -27 12 2 27 -28 34 -67 16 -91 37 -124 72 -111 78
30 182 -167 159 -303 -5 -30 -19 -129 -32 -220 -19 -132 -29 -162 -50 -145
-32 27 -45 7 -57 -87 -5 -39 -15 -81 -22 -93 -12 -19 37 -132 131 -300 44 -78
52 -225 17 -314 -12 -31 -24 -86 -27 -122 -3 -36 -15 -76 -27 -88 -20 -20 -41
-25 -130 -34 -9 -1 -11 -11 -4 -22 7 -11 -3 -26 -22 -34 -30 -11 -29 -15 10
-29 26 -10 39 -26 31 -39 -10 -16 10 -18 68 -8 104 17 112 -22 20 -99 -236
-199 -796 -262 -1258 -143 -60 16 -112 26 -116 22 -18 -18 129 -73 199 -74 43
0 83 -8 89 -17 6 -10 22 -13 37 -7 15 6 40 -3 57 -19 53 -54 464 -44 596 14
153 67 399 110 399 69 0 -20 13 -36 28 -36 85 0 46 -65 -73 -121 -511 -238
-1221 -153 -1582 190 -87 82 -69 123 31 68 52 -28 62 -32 146 -48 50 -10 44
-3 -38 45 -152 87 -241 246 -103 183 61 -28 205 27 259 98 51 68 24 79 -66 29
-108 -61 -193 -14 -282 154 -23 45 -20 54 42 106 38 31 59 55 48 53 -84 -15
-129 42 -127 157 2 64 -3 144 -11 179 -10 44 -5 71 17 93 17 17 31 55 31 84 0
30 23 120 52 201 52 147 58 251 7 144 -14 -30 -37 -55 -52 -55 -15 0 -21 -14
-15 -35 9 -27 6 -27 -14 4 -16 25 -24 113 -24 240 1 111 -5 186 -12 167 -23
-66 -57 -5 -80 144 -13 83 -39 199 -58 258 -26 84 -28 110 -9 117 14 5 25 22
25 39 0 22 7 25 25 10 17 -14 33 -12 51 8 21 23 20 28 -8 28 -25 0 -20 10 19
41 29 23 63 35 76 27 15 -9 18 -5 8 11 -12 18 -5 22 25 12 28 -9 53 1 80 30
29 31 44 35 55 17 10 -16 7 -19 -11 -8 -17 11 -21 8 -12 -7 22 -35 43 -28 72
27 24 46 120 67 120 26 0 -8 14 -9 31 -3 28 11 28 15 0 46 -22 25 -24 35 -6
35 14 1 43 8 65 16 33 11 35 10 10 -9 -25 -20 -22 -22 13 -11 24 6 50 2 57
-11 8 -12 26 -17 40 -12 14 6 110 2 213 -7 181 -18 357 20 357 77 0 26 -281
30 -307 4 -18 -18 -183 29 -228 64 -22 17 -38 215 -17 215 4 0 47 -18 95 -40
211 -95 433 10 551 261 49 102 100 487 70 525 -10 13 -19 72 -20 131 -1 58
-10 117 -21 130 -10 12 -19 62 -20 109 -1 99 -48 191 -129 252 -65 48 -383 69
-473 31z m466 -138 c29 -11 53 -30 53 -43 0 -16 -10 -14 -32 4 -22 18 -93 27
-219 27 -102 1 -184 3 -181 6 39 38 283 42 379 6z m-117 -138 c62 -17 86 -37
108 -87 15 -37 50 -90 77 -119 27 -30 45 -66 39 -80 -8 -19 -11 -17 -12 6 -3
51 -272 61 -334 12 -52 -41 -87 -44 -158 -12 -41 19 -72 17 -157 -10 -139 -43
-138 -44 -122 32 31 144 224 328 268 256 12 -18 19 -16 28 8 14 36 118 34 263
-6z m-134 -423 c70 -123 276 -125 330 -4 22 51 24 47 30 -63 3 -68 -4 -128
-17 -144 -13 -15 -34 -66 -48 -113 -33 -110 -78 -113 -91 -6 -10 77 -13 80
-85 81 -66 2 -140 29 -77 29 13 0 19 9 12 20 -8 13 -24 9 -43 -10 -21 -21 -40
-25 -63 -12 -24 13 -45 6 -78 -25 -25 -24 -63 -59 -86 -78 -28 -25 -37 -50
-29 -83 7 -26 3 -54 -9 -61 -12 -7 -22 -1 -22 13 0 15 -26 58 -57 96 -54 66
-69 107 -97 250 l-11 60 40 -49 c32 -40 56 -49 118 -44 174 11 174 12 182 85
14 137 45 155 101 58z m-236 -40 c0 -40 -10 -60 -30 -60 -36 0 -38 27 -5 80
32 52 35 51 35 -20z m278 -312 c-15 -18 -3 -23 46 -21 64 3 66 1 62 -72 -4
-59 3 -75 30 -77 20 -1 24 -5 9 -11 -14 -6 -25 -24 -25 -41 0 -18 -11 -26 -29
-19 -17 6 -38 -4 -49 -23 -10 -18 -26 -27 -34 -19 -8 8 -26 5 -40 -7 -30 -25
-108 9 -108 48 0 14 -19 41 -41 60 -69 59 -46 145 37 141 52 -2 61 2 44 23
-17 20 -13 29 14 35 68 16 105 8 84 -17z m-328 -599 c90 -38 84 -52 -16 -36
-43 7 -74 24 -74 40 0 34 -1 34 90 -4z m-761 -586 c5 -24 14 -51 19 -60 6 -10
16 -66 21 -125 10 -102 16 -139 43 -258 21 -96 49 -411 46 -530 -1 -66 4 -178
12 -250 l14 -130 -47 65 c-26 35 -58 64 -72 65 -14 0 -25 7 -25 16 0 9 -18 36
-40 60 -97 104 -154 512 -111 804 5 39 12 102 14 140 2 42 18 81 41 97 31 22
33 32 13 56 -19 24 -19 33 1 46 14 8 25 21 24 28 -10 75 32 54 47 -24z m2008
-1073 c-2 -44 6 -111 18 -150 28 -93 45 -243 26 -230 -9 5 -20 52 -25 105 -5
52 -29 134 -52 182 -33 68 -38 97 -22 139 14 37 14 55 -1 60 -12 4 -15 17 -8
29 24 39 68 -52 64 -135z m-2165 -61 c18 -38 70 -108 116 -155 78 -79 99 -112
146 -234 31 -78 12 -100 -91 -103 -51 -1 -73 -6 -48 -11 61 -12 37 -46 -33
-46 -152 0 -233 83 -127 130 25 11 45 27 45 36 0 9 -8 11 -18 5 -40 -24 -82
11 -61 51 11 21 14 38 7 38 -7 0 -2 14 12 30 14 17 16 30 5 30 -10 0 -19 66
-19 150 0 166 16 185 66 79z m332 -622 c-8 -262 -15 -326 -42 -395 -27 -68
-34 -217 -12 -253 35 -56 86 -668 52 -619 -11 17 -26 71 -32 120 -18 138 -54
264 -94 330 -37 62 -49 200 -19 218 9 6 17 101 17 211 0 110 9 211 21 225 22
28 63 182 79 301 19 139 36 60 30 -138z m-234 14 l60 -26 -70 -26 c-38 -14
-60 -27 -49 -27 72 -6 99 -59 42 -81 -95 -36 -200 -7 -163 45 21 30 23 48 7
67 -64 78 37 106 173 48z m-68 -221 c56 0 58 -4 58 -91 0 -51 -8 -86 -19 -80
-10 6 -25 1 -33 -12 -9 -14 -6 -18 9 -9 14 9 23 2 23 -17 0 -18 13 -37 28 -43
48 -18 52 -62 9 -101 -30 -27 -38 -29 -33 -6 4 21 -13 30 -60 31 -86 3 -141
53 -106 96 14 17 20 40 13 51 -8 12 -6 21 3 21 9 0 28 18 41 40 14 22 19 39
10 38 -43 -7 -63 5 -52 32 6 17 1 30 -12 30 -13 0 -17 10 -10 21 7 12 26 17
43 10 16 -6 56 -11 88 -11z m2718 3 c0 -9 -25 -28 -55 -42 -55 -26 -55 -26
-10 -43 49 -18 54 -33 25 -78 -13 -19 -19 -21 -20 -5 0 13 -22 30 -50 37 -27
7 -50 20 -50 30 0 10 -7 18 -17 18 -44 0 -9 -59 52 -88 45 -22 65 -43 58 -62
-6 -16 4 -38 23 -49 50 -29 -110 -28 -198 2 -86 28 -128 66 -58 52 203 -43
199 -44 81 32 -159 102 -171 153 -35 155 57 0 136 13 174 28 39 15 72 28 75
28 3 1 5 -6 5 -15z m-2641 -436 c4 -4 -19 -34 -53 -67 -67 -66 -137 -65 -116
1 9 26 -3 45 -41 64 -48 26 -43 27 74 19 70 -5 131 -12 136 -17z m2551 -164
l54 -42 -50 -23 c-72 -33 -258 -5 -209 31 19 14 29 30 23 37 -62 62 103 60
182 -3z m-2550 -82 c-1 -42 -23 -71 -65 -87 -33 -12 -48 19 -35 76 2 11 6 29
8 40 14 85 93 61 92 -29z m1893 29 c13 -28 15 -45 5 -39 -10 6 -18 2 -18 -10
0 -11 11 -22 25 -23 19 -1 19 -4 1 -11 -15 -6 -20 -31 -13 -66 6 -32 1 -62
-11 -70 -13 -8 -18 -21 -13 -29 11 -19 -59 -165 -73 -151 -5 5 -8 -23 -7 -63
1 -39 -5 -76 -15 -82 -9 -6 -12 -32 -5 -58 9 -39 2 -49 -41 -60 -36 -9 -44
-18 -26 -29 21 -13 21 -22 -1 -47 -14 -17 -33 -27 -43 -21 -9 6 -35 -8 -57
-30 -22 -22 -45 -31 -51 -20 -7 10 -31 19 -54 19 -40 0 -40 2 -9 37 45 49 42
61 -21 85 -35 13 -46 26 -31 35 17 11 22 93 5 93 -2 0 -6 20 -8 45 -3 25 -23
59 -44 75 -37 28 -37 29 1 29 47 1 19 34 -39 45 -26 5 -38 20 -34 44 6 31 -2
35 -45 24 -32 -8 -51 -4 -51 10 0 16 -9 16 -30 -2 -16 -14 -31 -17 -31 -7 -1
9 -10 -5 -21 -33 -31 -76 -57 -14 -58 135 0 106 5 125 35 125 85 -1 119 -25
140 -97 l21 -73 -6 72 c-4 39 0 80 7 90 16 22 83 29 83 9 0 -8 14 -14 30 -14
17 0 30 7 30 16 0 10 9 17 19 17 11 0 15 -13 9 -28 -18 -46 29 -57 56 -13 30
48 76 54 76 11 0 -16 9 -30 20 -30 11 0 18 10 15 22 -3 13 12 26 33 29 21 3
43 15 50 25 12 18 113 60 152 62 11 1 30 -21 43 -48z m567 -85 c60 -14 71 -25
76 -83 4 -40 -1 -61 -13 -54 -27 17 -83 -66 -83 -122 0 -88 -94 -10 -110 90
-31 205 -31 209 16 197 24 -6 76 -18 114 -28z m-2406 -105 c31 -62 -22 -167
-90 -176 -51 -8 -54 1 -19 57 20 32 20 43 -1 57 -39 24 -43 90 -6 106 53 23
90 9 116 -44z"/>
<path d="M2988 4597 c-17 -28 48 -117 77 -106 44 17 81 88 50 98 -74 22 -116
25 -127 8z"/>
<path d="M3573 3707 c-21 -22 -15 -87 9 -87 12 0 17 14 11 30 -7 19 0 30 19
30 17 0 25 9 18 20 -14 23 -38 26 -57 7z"/>
<path d="M3265 3425 c3 -33 13 -42 39 -34 40 13 48 -11 14 -45 -15 -15 -15
-25 0 -35 12 -7 22 -3 22 10 0 14 17 19 41 13 67 -18 39 50 -31 72 -33 11 -66
30 -74 42 -8 12 -13 1 -11 -23z"/>
<path d="M3580 3270 c13 -16 19 -43 13 -60 -8 -19 0 -30 23 -30 29 -1 30 -3 4
-20 -16 -11 -21 -20 -9 -20 12 0 56 -76 98 -170 l78 -170 34 75 c37 82 20 152
-31 132 -20 -8 -39 9 -56 51 -15 35 -33 57 -40 50 -16 -17 -65 102 -72 177 -1
8 -17 15 -34 15 -27 0 -28 -5 -8 -30z"/>
<path d="M3566 3044 c-1 -52 -3 -121 -6 -154 -4 -69 38 -310 60 -340 8 -11 20
-45 28 -75 7 -30 22 -55 32 -55 11 0 20 -20 21 -45 0 -43 58 -143 60 -104 0
11 18 -2 40 -28 46 -55 56 -12 15 63 -20 38 -58 178 -159 584 -11 44 -25 109
-31 144 -18 111 -58 118 -60 10z"/>
<path d="M2887 3050 c3 -38 -1 -70 -8 -70 -27 0 -9 -70 26 -103 34 -31 34 -33
-3 -42 -29 -8 -36 -2 -29 22 9 27 7 28 -9 5 -21 -30 -10 -83 21 -104 10 -7 4
-18 -14 -25 -19 -7 -28 -4 -21 7 7 11 8 20 2 20 -6 0 -20 -18 -32 -40 -17 -32
-15 -37 12 -27 18 7 40 0 50 -15 25 -39 57 11 42 67 -8 31 -4 37 18 25 15 -9
22 -9 14 -1 -8 9 -6 33 6 54 14 27 13 40 -6 48 -26 9 -33 104 -12 141 15 25
-18 108 -43 108 -10 0 -17 -31 -14 -70z"/>
<path d="M3240 2954 c0 -19 11 -34 25 -35 14 0 7 -11 -15 -25 -47 -28 -61 -97
-15 -80 24 10 24 2 -3 -51 -18 -35 -42 -63 -54 -63 -11 0 -15 -9 -8 -20 15
-24 70 25 70 62 0 16 10 13 25 -9 21 -28 25 -15 25 86 0 68 -11 130 -25 144
-20 20 -25 18 -25 -9z"/>
<path d="M2543 2746 c-58 -91 -62 -93 -78 -48 l-18 46 -33 -51 c-19 -28 -34
-61 -34 -73 0 -30 -79 -182 -112 -215 -22 -22 -21 -132 2 -161 3 -3 30 42 60
100 30 58 83 147 118 196 99 140 186 300 164 300 -4 0 -35 -42 -69 -94z"/>
<path d="M3375 1942 c-33 -34 -29 -62 10 -62 9 0 11 11 3 25 -9 16 -4 15 14
-2 22 -22 22 -30 3 -37 -33 -12 -32 -39 2 -52 18 -7 28 7 29 43 0 30 4 66 8
81 9 41 -30 44 -69 4z"/>
<path d="M4340 1902 c-102 -14 -68 -41 36 -29 41 4 62 -1 54 -13 -7 -11 -4
-20 7 -20 10 0 24 14 31 31 6 17 21 26 32 19 11 -7 20 -3 20 9 0 22 -32 23
-180 3z"/>
<path d="M3474 1847 c-8 -8 0 -36 18 -62 17 -27 26 -54 20 -60 -7 -6 -12 -1
-12 12 0 13 -16 23 -35 23 -30 -1 -31 -3 -5 -20 25 -16 23 -20 -10 -20 -39 -1
-39 -2 -1 -31 21 -16 30 -29 20 -30 -11 0 -3 -9 16 -21 38 -22 48 -108 15
-128 -32 -20 -23 -55 11 -42 17 6 26 3 20 -7 -7 -10 -3 -24 8 -30 10 -7 14
-25 8 -42 -7 -18 1 -29 19 -29 17 0 35 11 41 25 7 17 10 17 11 2 2 -28 82 -11
82 17 0 11 -22 38 -49 59 -31 24 -49 58 -49 93 2 118 -28 248 -60 259 -18 7
-37 20 -43 29 -7 9 -18 10 -25 3z"/>
<path d="M3700 1812 c0 -36 56 -102 83 -96 28 5 27 13 -12 55 -41 44 -71 62
-71 41z"/>
<path d="M2513 579 c11 -11 69 -24 129 -29 l108 -9 -80 28 c-98 34 -187 40
-157 10z"/>
</g>
</svg>
